<mxfile host="app.diagrams.net" agent="Mozilla/5.0 (Windows NT 10.0; Win64; x64; rv:134.0) Gecko/20100101 Firefox/134.0" version="26.0.5">
  <diagram name="Page-1" id="rcy1EOV1hMq-oP2Hw1SG">
    <mxGraphModel dx="1434" dy="893" grid="1" gridSize="10" guides="1" tooltips="1" connect="1" arrows="1" fold="1" page="1" pageScale="1" pageWidth="850" pageHeight="1100" math="0" shadow="0">
      <root>
        <mxCell id="0" />
        <mxCell id="1" parent="0" />
        <mxCell id="3KQkP_uHj6IdCOXqkeaI-6" style="edgeStyle=orthogonalEdgeStyle;rounded=0;orthogonalLoop=1;jettySize=auto;html=1;exitX=0.5;exitY=1;exitDx=0;exitDy=0;entryX=0.5;entryY=0;entryDx=0;entryDy=0;" edge="1" parent="1" source="3KQkP_uHj6IdCOXqkeaI-1" target="3KQkP_uHj6IdCOXqkeaI-5">
          <mxGeometry relative="1" as="geometry" />
        </mxCell>
        <mxCell id="3KQkP_uHj6IdCOXqkeaI-32" style="edgeStyle=orthogonalEdgeStyle;rounded=0;orthogonalLoop=1;jettySize=auto;html=1;exitX=1;exitY=0.5;exitDx=0;exitDy=0;entryX=0;entryY=0.5;entryDx=0;entryDy=0;" edge="1" parent="1" source="3KQkP_uHj6IdCOXqkeaI-1" target="3KQkP_uHj6IdCOXqkeaI-31">
          <mxGeometry relative="1" as="geometry" />
        </mxCell>
        <mxCell id="3KQkP_uHj6IdCOXqkeaI-1" value="Timedelta&amp;lt;minDelta?" style="rhombus;whiteSpace=wrap;html=1;" vertex="1" parent="1">
          <mxGeometry x="60" y="160" width="160" height="160" as="geometry" />
        </mxCell>
        <mxCell id="3KQkP_uHj6IdCOXqkeaI-4" style="edgeStyle=orthogonalEdgeStyle;rounded=0;orthogonalLoop=1;jettySize=auto;html=1;exitX=0.5;exitY=1;exitDx=0;exitDy=0;entryX=0.5;entryY=0;entryDx=0;entryDy=0;" edge="1" parent="1" source="3KQkP_uHj6IdCOXqkeaI-2" target="3KQkP_uHj6IdCOXqkeaI-1">
          <mxGeometry relative="1" as="geometry" />
        </mxCell>
        <mxCell id="3KQkP_uHj6IdCOXqkeaI-2" value="Obfuscate" style="rounded=1;whiteSpace=wrap;html=1;" vertex="1" parent="1">
          <mxGeometry x="60" y="40" width="160" height="80" as="geometry" />
        </mxCell>
        <mxCell id="3KQkP_uHj6IdCOXqkeaI-13" style="edgeStyle=orthogonalEdgeStyle;rounded=0;orthogonalLoop=1;jettySize=auto;html=1;exitX=0.5;exitY=1;exitDx=0;exitDy=0;entryX=0.5;entryY=0;entryDx=0;entryDy=0;" edge="1" parent="1" source="3KQkP_uHj6IdCOXqkeaI-5" target="3KQkP_uHj6IdCOXqkeaI-7">
          <mxGeometry relative="1" as="geometry" />
        </mxCell>
        <mxCell id="3KQkP_uHj6IdCOXqkeaI-29" style="edgeStyle=orthogonalEdgeStyle;rounded=0;orthogonalLoop=1;jettySize=auto;html=1;exitX=1;exitY=0.5;exitDx=0;exitDy=0;entryX=0.5;entryY=1;entryDx=0;entryDy=0;" edge="1" parent="1" source="3KQkP_uHj6IdCOXqkeaI-5" target="3KQkP_uHj6IdCOXqkeaI-23">
          <mxGeometry relative="1" as="geometry" />
        </mxCell>
        <mxCell id="3KQkP_uHj6IdCOXqkeaI-5" value="In laatst gebruikte blob?" style="rhombus;whiteSpace=wrap;html=1;" vertex="1" parent="1">
          <mxGeometry x="60" y="360" width="160" height="160" as="geometry" />
        </mxCell>
        <mxCell id="3KQkP_uHj6IdCOXqkeaI-17" style="edgeStyle=orthogonalEdgeStyle;rounded=0;orthogonalLoop=1;jettySize=auto;html=1;exitX=1;exitY=0.5;exitDx=0;exitDy=0;entryX=0;entryY=0.5;entryDx=0;entryDy=0;" edge="1" parent="1" source="3KQkP_uHj6IdCOXqkeaI-7" target="3KQkP_uHj6IdCOXqkeaI-16">
          <mxGeometry relative="1" as="geometry" />
        </mxCell>
        <mxCell id="3KQkP_uHj6IdCOXqkeaI-21" style="edgeStyle=orthogonalEdgeStyle;rounded=0;orthogonalLoop=1;jettySize=auto;html=1;exitX=0.5;exitY=1;exitDx=0;exitDy=0;entryX=0;entryY=0.5;entryDx=0;entryDy=0;" edge="1" parent="1" source="3KQkP_uHj6IdCOXqkeaI-7" target="3KQkP_uHj6IdCOXqkeaI-20">
          <mxGeometry relative="1" as="geometry" />
        </mxCell>
        <mxCell id="3KQkP_uHj6IdCOXqkeaI-7" value="Blob hit?" style="rhombus;whiteSpace=wrap;html=1;" vertex="1" parent="1">
          <mxGeometry x="60" y="560" width="160" height="160" as="geometry" />
        </mxCell>
        <mxCell id="3KQkP_uHj6IdCOXqkeaI-9" value="" style="ellipse;html=1;shape=endState;fillColor=#000000;strokeColor=#ff0000;" vertex="1" parent="1">
          <mxGeometry x="405" y="225" width="30" height="30" as="geometry" />
        </mxCell>
        <mxCell id="3KQkP_uHj6IdCOXqkeaI-24" style="edgeStyle=orthogonalEdgeStyle;rounded=0;orthogonalLoop=1;jettySize=auto;html=1;exitX=1;exitY=0.5;exitDx=0;exitDy=0;entryX=0.5;entryY=1;entryDx=0;entryDy=0;" edge="1" parent="1" source="3KQkP_uHj6IdCOXqkeaI-16" target="3KQkP_uHj6IdCOXqkeaI-23">
          <mxGeometry relative="1" as="geometry" />
        </mxCell>
        <mxCell id="3KQkP_uHj6IdCOXqkeaI-16" value="Add blob and ts to last location cache" style="rounded=0;whiteSpace=wrap;html=1;" vertex="1" parent="1">
          <mxGeometry x="240" y="610" width="160" height="60" as="geometry" />
        </mxCell>
        <mxCell id="3KQkP_uHj6IdCOXqkeaI-28" style="edgeStyle=orthogonalEdgeStyle;rounded=0;orthogonalLoop=1;jettySize=auto;html=1;exitX=1;exitY=0.5;exitDx=0;exitDy=0;entryX=0.5;entryY=1;entryDx=0;entryDy=0;" edge="1" parent="1" source="3KQkP_uHj6IdCOXqkeaI-20" target="3KQkP_uHj6IdCOXqkeaI-23">
          <mxGeometry relative="1" as="geometry" />
        </mxCell>
        <mxCell id="3KQkP_uHj6IdCOXqkeaI-20" value="Make new blob and add to bloblist. Add blob and ts to cache" style="rounded=0;whiteSpace=wrap;html=1;" vertex="1" parent="1">
          <mxGeometry x="240" y="710" width="160" height="60" as="geometry" />
        </mxCell>
        <mxCell id="3KQkP_uHj6IdCOXqkeaI-26" style="edgeStyle=orthogonalEdgeStyle;rounded=0;orthogonalLoop=1;jettySize=auto;html=1;exitX=0.5;exitY=0;exitDx=0;exitDy=0;entryX=0.5;entryY=1;entryDx=0;entryDy=0;" edge="1" parent="1" source="3KQkP_uHj6IdCOXqkeaI-23" target="3KQkP_uHj6IdCOXqkeaI-9">
          <mxGeometry relative="1" as="geometry" />
        </mxCell>
        <mxCell id="3KQkP_uHj6IdCOXqkeaI-23" value="Return blob and ts" style="rounded=0;whiteSpace=wrap;html=1;" vertex="1" parent="1">
          <mxGeometry x="340" y="320" width="160" height="60" as="geometry" />
        </mxCell>
        <mxCell id="3KQkP_uHj6IdCOXqkeaI-33" style="edgeStyle=orthogonalEdgeStyle;rounded=0;orthogonalLoop=1;jettySize=auto;html=1;exitX=1;exitY=0.5;exitDx=0;exitDy=0;entryX=0;entryY=0.5;entryDx=0;entryDy=0;" edge="1" parent="1" source="3KQkP_uHj6IdCOXqkeaI-31" target="3KQkP_uHj6IdCOXqkeaI-9">
          <mxGeometry relative="1" as="geometry" />
        </mxCell>
        <mxCell id="3KQkP_uHj6IdCOXqkeaI-31" value="Return last location from cache" style="rounded=0;whiteSpace=wrap;html=1;" vertex="1" parent="1">
          <mxGeometry x="230" y="210" width="160" height="60" as="geometry" />
        </mxCell>
      </root>
    </mxGraphModel>
  </diagram>
</mxfile>
